<?xml version="1.0" encoding="UTF-8"?>
<svg xmlns="http://www.w3.org/2000/svg" xmlns:xlink="http://www.w3.org/1999/xlink" width="595.276" height="233.001" viewBox="0 0 595.276 233.001">
<path fill-rule="nonzero" fill="rgb(11.372375%, 11.372375%, 10.588074%)" fill-opacity="1" d="M 203.785156 89.136719 C 204.976562 89.136719 205.882812 89 206.472656 88.726562 C 207.074219 88.449219 207.457031 88.058594 207.652344 87.53125 C 207.855469 86.988281 207.957031 86.085938 207.964844 84.839844 L 208.019531 71.53125 C 208.023438 70.375 207.90625 69.492188 207.671875 68.90625 C 207.4375 68.335938 207.042969 67.90625 206.496094 67.628906 C 205.9375 67.347656 205.144531 67.203125 204.136719 67.199219 L 200.398438 67.183594 L 200.398438 67.535156 L 201.683594 67.839844 C 202.628906 68.066406 203.332031 68.308594 203.824219 68.585938 C 204.328125 68.871094 204.695312 69.257812 204.917969 69.742188 C 205.140625 70.222656 205.25 70.941406 205.246094 71.875 L 205.191406 84.472656 C 205.1875 85.5625 205.035156 86.351562 204.742188 86.824219 C 204.449219 87.292969 204.027344 87.648438 203.488281 87.882812 C 202.96875 88.109375 202.332031 88.308594 201.597656 88.476562 L 200.308594 88.769531 L 200.308594 89.125 L 203.722656 89.136719 Z M 203.785156 89.136719 "/>
<path fill-rule="nonzero" fill="rgb(11.372375%, 11.372375%, 10.588074%)" fill-opacity="1" d="M 216.546875 88.839844 L 215.261719 88.535156 C 214.332031 88.316406 213.609375 88.0625 213.121094 87.789062 C 212.617188 87.503906 212.25 87.113281 212.027344 86.632812 C 211.808594 86.152344 211.699219 85.4375 211.703125 84.5 L 211.753906 71.902344 C 211.761719 70.796875 211.90625 70.023438 212.203125 69.550781 C 212.496094 69.082031 212.917969 68.726562 213.457031 68.492188 C 213.976562 68.269531 214.597656 68.074219 215.347656 67.898438 L 216.636719 67.605469 L 216.640625 67.25 L 207.554688 67.214844 C 208.03125 67.480469 208.375 67.894531 208.585938 68.445312 C 208.855469 69.160156 208.988281 70.199219 208.984375 71.535156 L 208.925781 84.839844 C 208.921875 86.183594 208.777344 87.21875 208.503906 87.929688 C 208.289062 88.480469 207.9375 88.886719 207.464844 89.152344 L 216.546875 89.191406 Z M 216.546875 88.839844 "/>
<path fill-rule="nonzero" fill="rgb(11.372375%, 11.372375%, 10.588074%)" fill-opacity="1" d="M 228.042969 88.816406 C 228.632812 88.546875 229.027344 88.144531 229.222656 87.621094 C 229.421875 87.078125 229.527344 86.171875 229.53125 84.929688 L 229.589844 71.625 C 229.59375 70.46875 229.476562 69.585938 229.238281 69 C 229.007812 68.429688 228.613281 68 228.066406 67.71875 C 227.503906 67.4375 226.710938 67.292969 225.707031 67.289062 L 221.96875 67.273438 L 221.964844 67.625 L 223.253906 67.929688 C 224.179688 68.152344 224.902344 68.402344 225.394531 68.679688 C 225.894531 68.964844 226.265625 69.351562 226.488281 69.832031 C 226.707031 70.3125 226.816406 71.03125 226.8125 71.964844 L 226.757812 84.5625 C 226.753906 85.652344 226.605469 86.445312 226.3125 86.914062 C 226.019531 87.382812 225.597656 87.738281 225.058594 87.972656 C 224.535156 88.199219 223.898438 88.398438 223.164062 88.570312 L 221.875 88.863281 L 221.875 89.214844 L 225.292969 89.230469 C 226.523438 89.242188 227.4375 89.09375 228.042969 88.816406 "/>
<path fill-rule="nonzero" fill="rgb(11.372375%, 11.372375%, 10.588074%)" fill-opacity="1" d="M 247.074219 80.683594 L 246.714844 80.683594 L 245.960938 82.976562 C 245.847656 83.34375 245.65625 83.8125 245.367188 84.40625 C 245.082031 84.992188 244.617188 85.640625 243.984375 86.332031 C 243.351562 87.027344 242.527344 87.601562 241.535156 88.042969 C 240.558594 88.480469 239.464844 88.699219 238.285156 88.699219 L 238.242188 88.699219 L 233.253906 88.675781 L 233.253906 88.550781 L 233.324219 71.996094 C 233.328125 71.386719 233.382812 70.828125 233.496094 70.34375 C 233.609375 69.835938 233.835938 69.421875 234.164062 69.105469 C 234.492188 68.792969 234.898438 68.550781 235.375 68.390625 C 235.835938 68.230469 236.355469 68.09375 236.921875 67.988281 L 238.527344 67.691406 L 238.53125 67.34375 L 229.121094 67.304688 C 229.597656 67.574219 229.945312 67.988281 230.152344 68.539062 C 230.421875 69.25 230.558594 70.289062 230.550781 71.628906 L 230.496094 84.933594 C 230.488281 86.273438 230.347656 87.3125 230.070312 88.019531 C 229.855469 88.570312 229.507812 88.984375 229.03125 89.246094 L 247.039062 89.320312 Z M 247.074219 80.683594 "/>
<path fill-rule="nonzero" fill="rgb(11.372375%, 11.372375%, 10.588074%)" fill-opacity="1" d="M 282.539062 86.597656 L 289.476562 73.335938 C 290.273438 71.832031 290.890625 70.78125 291.371094 70.121094 C 291.851562 69.460938 292.34375 68.957031 292.828125 68.632812 C 293.3125 68.304688 293.804688 68.09375 294.296875 68.007812 L 294.738281 67.929688 L 294.738281 67.582031 L 285.394531 67.542969 L 285.390625 67.898438 L 286.230469 68.101562 C 287.171875 68.328125 287.914062 68.734375 288.429688 69.3125 C 288.953125 69.890625 289.214844 70.59375 289.210938 71.394531 C 289.210938 71.75 289.140625 72.171875 289.007812 72.652344 C 288.875 73.128906 288.71875 73.539062 288.539062 73.867188 L 283.59375 83.265625 L 283.480469 83.0625 L 277.054688 71.46875 C 276.679688 70.824219 276.496094 70.285156 276.496094 69.828125 C 276.5 69.613281 276.570312 69.378906 276.710938 69.136719 C 276.855469 68.886719 277.117188 68.675781 277.511719 68.492188 C 277.882812 68.320312 278.371094 68.175781 278.960938 68.070312 L 280.050781 67.871094 L 280.050781 67.519531 L 271.363281 67.484375 C 271.640625 67.742188 271.917969 68.054688 272.1875 68.414062 C 272.527344 68.855469 272.851562 69.359375 273.160156 69.910156 Z M 282.539062 86.597656 "/>
<path fill-rule="nonzero" fill="rgb(11.372375%, 11.372375%, 10.588074%)" fill-opacity="1" d="M 272.292969 70.417969 C 271.785156 69.527344 271.386719 68.894531 271.105469 68.546875 C 270.828125 68.207031 270.507812 67.941406 270.148438 67.757812 C 269.792969 67.570312 269.40625 67.476562 269 67.472656 L 265.421875 67.460938 L 265.421875 67.808594 L 265.800781 67.886719 C 266.351562 68 266.851562 68.179688 267.285156 68.421875 C 267.726562 68.667969 268.117188 68.992188 268.445312 69.390625 C 268.765625 69.777344 269.046875 70.1875 269.289062 70.601562 L 280.382812 90.105469 L 280.679688 90.109375 L 281.976562 87.605469 Z M 272.292969 70.417969 "/>
<path fill-rule="nonzero" fill="rgb(11.372375%, 11.372375%, 10.588074%)" fill-opacity="1" d="M 302.742188 89.558594 C 303.933594 89.558594 304.835938 89.421875 305.429688 89.148438 C 306.027344 88.871094 306.414062 88.480469 306.609375 87.953125 C 306.8125 87.402344 306.917969 86.496094 306.921875 85.257812 L 306.976562 71.953125 C 306.980469 70.792969 306.863281 69.910156 306.625 69.328125 C 306.390625 68.75 306.003906 68.332031 305.449219 68.050781 C 304.894531 67.769531 304.101562 67.625 303.09375 67.621094 L 299.355469 67.601562 L 299.355469 67.957031 L 300.640625 68.257812 C 301.585938 68.488281 302.285156 68.730469 302.78125 69.007812 C 303.28125 69.289062 303.648438 69.679688 303.875 70.164062 C 304.09375 70.644531 304.203125 71.363281 304.199219 72.296875 L 304.144531 84.890625 C 304.140625 85.984375 303.988281 86.777344 303.695312 87.242188 C 303.40625 87.710938 302.984375 88.070312 302.445312 88.300781 C 301.917969 88.53125 301.28125 88.730469 300.550781 88.898438 L 299.261719 89.191406 L 299.261719 89.546875 L 302.679688 89.558594 Z M 302.742188 89.558594 "/>
<path fill-rule="nonzero" fill="rgb(11.372375%, 11.372375%, 10.588074%)" fill-opacity="1" d="M 324.660156 83.640625 C 324.269531 84.628906 323.707031 85.566406 322.988281 86.421875 C 322.269531 87.277344 321.371094 87.933594 320.320312 88.378906 C 319.292969 88.8125 318.179688 89.035156 317.023438 89.035156 L 316.984375 89.035156 L 310.640625 89.007812 L 310.640625 88.882812 L 310.683594 78.351562 L 312.453125 78.359375 C 313.886719 78.363281 315.03125 78.621094 315.851562 79.117188 C 316.679688 79.613281 317.292969 80.457031 317.683594 81.621094 L 318.324219 83.601562 L 318.621094 83.601562 L 318.667969 72.644531 L 318.371094 72.644531 L 317.714844 74.648438 C 317.460938 75.363281 317.175781 75.890625 316.839844 76.265625 C 316.511719 76.640625 316.152344 76.941406 315.777344 77.15625 C 315.398438 77.378906 314.921875 77.550781 314.351562 77.664062 C 313.804688 77.78125 313.1875 77.839844 312.511719 77.839844 L 312.457031 77.839844 L 310.6875 77.832031 L 310.6875 77.707031 L 310.726562 68.234375 L 310.851562 68.234375 L 317.75 68.265625 C 318.597656 68.269531 319.460938 68.425781 320.316406 68.734375 C 321.171875 69.042969 321.941406 69.507812 322.597656 70.125 C 323.25 70.738281 323.757812 71.375 324.109375 72.011719 C 324.464844 72.660156 324.730469 73.285156 324.902344 73.863281 L 325.257812 75.0625 L 325.613281 75.066406 L 325.644531 67.714844 L 306.511719 67.632812 C 306.988281 67.902344 307.332031 68.316406 307.539062 68.867188 C 307.808594 69.578125 307.941406 70.621094 307.9375 71.957031 L 307.878906 85.261719 C 307.875 86.625 307.734375 87.636719 307.457031 88.347656 C 307.242188 88.898438 306.894531 89.3125 306.417969 89.574219 L 325.777344 89.65625 L 325.8125 81.664062 L 325.445312 81.664062 Z M 324.660156 83.640625 "/>
<path fill-rule="nonzero" fill="rgb(11.372375%, 11.372375%, 10.588074%)" fill-opacity="1" d="M 334.71875 89.691406 C 335.894531 89.691406 336.792969 89.558594 337.386719 89.28125 C 337.976562 89.007812 338.375 88.605469 338.566406 88.089844 C 338.765625 87.546875 338.871094 86.640625 338.875 85.394531 L 338.929688 72.089844 C 338.9375 70.933594 338.820312 70.046875 338.582031 69.464844 C 338.351562 68.894531 337.957031 68.464844 337.40625 68.183594 C 336.851562 67.90625 336.058594 67.757812 335.054688 67.753906 L 331.3125 67.738281 L 331.308594 68.089844 L 332.597656 68.394531 C 333.523438 68.617188 334.246094 68.867188 334.738281 69.144531 C 335.238281 69.429688 335.609375 69.816406 335.832031 70.300781 C 336.050781 70.78125 336.160156 71.5 336.15625 72.433594 L 336.101562 85.027344 C 336.097656 86.136719 335.949219 86.902344 335.652344 87.382812 C 335.363281 87.847656 334.941406 88.203125 334.402344 88.4375 C 333.875 88.664062 333.238281 88.863281 332.507812 89.03125 L 331.21875 89.328125 L 331.21875 89.679688 L 334.632812 89.691406 Z M 334.71875 89.691406 "/>
<path fill-rule="nonzero" fill="rgb(11.372375%, 11.372375%, 10.588074%)" fill-opacity="1" d="M 346.921875 79.078125 L 342.640625 79.0625 L 342.640625 78.9375 L 342.6875 68.304688 L 342.8125 68.304688 L 346.96875 68.324219 C 348.988281 68.332031 350.511719 68.796875 351.492188 69.699219 C 352.390625 70.5625 352.847656 71.875 352.839844 73.597656 C 352.832031 75.144531 352.460938 76.382812 351.730469 77.28125 C 350.746094 78.472656 349.144531 79.078125 346.976562 79.078125 Z M 347.15625 79.664062 L 352.878906 89.769531 L 356.660156 89.789062 C 356.597656 89.746094 356.527344 89.699219 356.453125 89.648438 C 356.175781 89.457031 355.894531 89.171875 355.621094 88.792969 C 355.351562 88.421875 355 87.855469 354.574219 87.101562 L 351.277344 81.210938 C 350.125 81.007812 348.996094 80.542969 347.914062 79.835938 L 347.578125 79.617188 L 347.976562 79.605469 C 348.535156 79.585938 349.164062 79.519531 349.84375 79.402344 C 350.535156 79.289062 351.21875 79.097656 351.882812 78.824219 C 352.550781 78.554688 353.136719 78.21875 353.628906 77.820312 C 354.117188 77.429688 354.535156 76.976562 354.863281 76.46875 C 355.1875 75.972656 355.414062 75.464844 355.53125 74.96875 C 355.648438 74.453125 355.707031 74.011719 355.707031 73.613281 C 355.710938 73.175781 355.632812 72.691406 355.476562 72.164062 C 355.328125 71.648438 355.011719 71.09375 354.542969 70.511719 C 354.070312 69.933594 353.433594 69.421875 352.636719 68.988281 C 351.835938 68.550781 351.039062 68.246094 350.273438 68.074219 C 349.503906 67.902344 348.816406 67.8125 348.226562 67.8125 L 338.464844 67.769531 C 338.9375 68.035156 339.285156 68.449219 339.496094 69.003906 C 339.769531 69.714844 339.902344 70.753906 339.894531 72.09375 L 339.839844 85.398438 C 339.832031 86.761719 339.695312 87.773438 339.414062 88.484375 C 339.195312 89.035156 338.847656 89.449219 338.371094 89.710938 L 347.457031 89.75 L 347.460938 89.394531 L 346.175781 89.089844 C 345.238281 88.871094 344.527344 88.621094 344.050781 88.34375 C 343.558594 88.0625 343.1875 87.667969 342.953125 87.171875 C 342.722656 86.683594 342.609375 85.972656 342.613281 85.054688 L 342.640625 79.582031 L 342.765625 79.582031 L 347.121094 79.597656 Z M 347.15625 79.664062 "/>
<path fill-rule="nonzero" fill="rgb(11.372375%, 11.372375%, 10.588074%)" fill-opacity="1" d="M 357.796875 89.5 C 358.246094 89.699219 358.71875 89.796875 359.246094 89.796875 L 362.242188 89.8125 L 362.246094 89.457031 L 361.796875 89.351562 C 361.226562 89.21875 360.726562 89.019531 360.3125 88.765625 C 359.890625 88.511719 359.519531 88.167969 359.203125 87.746094 C 358.890625 87.339844 358.558594 86.816406 358.183594 86.148438 L 355.324219 81.101562 C 354.945312 81.195312 354.53125 81.265625 354.09375 81.316406 C 353.644531 81.367188 353.261719 81.390625 352.960938 81.390625 L 352.933594 81.390625 L 352.449219 81.367188 L 355.339844 86.59375 C 355.847656 87.527344 356.277344 88.207031 356.625 88.609375 C 356.964844 89 357.359375 89.300781 357.796875 89.5 "/>
<path fill-rule="nonzero" fill="rgb(11.372375%, 11.372375%, 10.588074%)" fill-opacity="1" d="M 356.664062 69.21875 C 355.570312 68.65625 354.191406 68.261719 352.558594 68.039062 C 353.078125 68.257812 353.558594 68.507812 353.988281 68.777344 C 354.59375 69.15625 355.105469 69.597656 355.511719 70.082031 C 355.914062 70.570312 356.222656 71.117188 356.429688 71.71875 C 356.636719 72.328125 356.738281 72.996094 356.734375 73.710938 C 356.730469 74.582031 356.542969 75.402344 356.179688 76.148438 C 355.816406 76.890625 355.308594 77.546875 354.675781 78.097656 C 354.207031 78.507812 353.660156 78.871094 353.046875 79.179688 C 354.34375 78.921875 355.5 78.554688 356.503906 78.074219 C 357.09375 77.800781 357.632812 77.449219 358.101562 77.023438 C 358.574219 76.601562 358.925781 76.089844 359.15625 75.511719 C 359.386719 74.929688 359.503906 74.296875 359.507812 73.628906 C 359.511719 72.6875 359.269531 71.832031 358.785156 71.085938 C 358.296875 70.332031 357.585938 69.707031 356.664062 69.21875 "/>
<path fill-rule="nonzero" fill="rgb(11.372375%, 11.372375%, 10.588074%)" fill-opacity="1" d="M 368.003906 72.421875 C 366.574219 74.210938 365.84375 76.371094 365.832031 78.839844 C 365.820312 81.3125 366.535156 83.480469 367.953125 85.292969 C 369.242188 86.941406 371.0625 88.242188 373.371094 89.15625 C 371.894531 88.09375 370.757812 86.777344 369.992188 85.230469 C 369.125 83.476562 368.691406 81.332031 368.703125 78.851562 C 368.710938 76.351562 369.164062 74.203125 370.046875 72.472656 C 370.820312 70.953125 371.957031 69.675781 373.425781 68.660156 C 371.128906 69.535156 369.304688 70.800781 368.003906 72.421875 "/>
<path fill-rule="nonzero" fill="rgb(11.372375%, 11.372375%, 10.588074%)" fill-opacity="1" d="M 393.105469 85.398438 C 394.535156 83.605469 395.269531 81.4375 395.28125 78.96875 C 395.289062 76.492188 394.574219 74.328125 393.160156 72.527344 C 391.875 70.894531 390.0625 69.617188 387.773438 68.722656 C 389.238281 69.75 390.359375 71.039062 391.117188 72.5625 C 391.984375 74.304688 392.417969 76.453125 392.40625 78.953125 C 392.394531 81.429688 391.945312 83.570312 391.0625 85.320312 C 390.285156 86.855469 389.140625 88.164062 387.648438 89.214844 C 389.964844 88.324219 391.796875 87.039062 393.105469 85.398438 "/>
<path fill-rule="nonzero" fill="rgb(11.372375%, 11.372375%, 10.588074%)" fill-opacity="1" d="M 372.914062 81.769531 C 372.789062 80.75 372.726562 79.773438 372.730469 78.871094 C 372.734375 77.972656 372.800781 77 372.9375 75.988281 C 373.070312 74.949219 373.3125 73.945312 373.664062 73.015625 C 374.015625 72.070312 374.503906 71.207031 375.113281 70.441406 C 375.722656 69.671875 376.523438 69.058594 377.484375 68.625 C 378.433594 68.203125 379.46875 67.984375 380.5625 67.984375 L 380.597656 67.984375 C 381.707031 67.992188 382.753906 68.214844 383.710938 68.652344 C 384.667969 69.09375 385.460938 69.710938 386.070312 70.488281 C 386.671875 71.253906 387.148438 72.125 387.496094 73.074219 C 387.835938 74.015625 388.074219 75.015625 388.195312 76.054688 C 388.320312 77.085938 388.386719 78.054688 388.382812 78.9375 C 388.378906 79.816406 388.308594 80.792969 388.171875 81.835938 C 388.039062 82.882812 387.792969 83.890625 387.445312 84.824219 C 387.089844 85.769531 386.605469 86.640625 386 87.410156 C 385.386719 88.191406 384.589844 88.8125 383.625 89.257812 C 382.671875 89.695312 381.636719 89.917969 380.546875 89.917969 L 380.507812 89.917969 C 379.402344 89.914062 378.355469 89.679688 377.394531 89.234375 C 376.433594 88.777344 375.640625 88.148438 375.042969 87.367188 C 374.4375 86.585938 373.957031 85.710938 373.617188 84.765625 C 373.273438 83.828125 373.035156 82.820312 372.914062 81.769531 M 377.078125 89.976562 C 378.144531 90.277344 379.296875 90.429688 380.503906 90.433594 L 380.570312 90.433594 C 381.96875 90.433594 383.273438 90.234375 384.460938 89.832031 C 385.667969 89.425781 386.675781 88.890625 387.457031 88.242188 C 388.242188 87.589844 388.886719 86.890625 389.371094 86.164062 C 389.859375 85.445312 390.253906 84.679688 390.546875 83.894531 C 390.835938 83.109375 391.046875 82.304688 391.175781 81.503906 C 391.308594 80.714844 391.375 79.886719 391.378906 78.980469 C 391.386719 76.792969 390.984375 74.804688 390.175781 73.070312 C 389.375 71.339844 388.128906 69.964844 386.476562 68.984375 C 384.816406 68.007812 382.839844 67.507812 380.601562 67.496094 L 380.546875 67.496094 C 378.328125 67.496094 376.367188 67.980469 374.71875 68.933594 C 373.058594 69.902344 371.800781 71.261719 370.980469 72.988281 C 370.160156 74.71875 369.738281 76.707031 369.730469 78.886719 C 369.722656 80.425781 369.914062 81.847656 370.300781 83.121094 C 370.6875 84.402344 371.222656 85.507812 371.894531 86.40625 C 372.5625 87.304688 373.332031 88.058594 374.191406 88.644531 C 375.039062 89.226562 376.007812 89.675781 377.078125 89.976562 "/>
<path fill-rule="nonzero" fill="rgb(11.372375%, 11.372375%, 10.588074%)" fill-opacity="1" d="M 138.019531 150.898438 C 139.511719 150.585938 140.90625 150.175781 142.199219 149.660156 C 143.492188 149.144531 144.84375 148.347656 146.25 147.265625 C 148.066406 145.824219 149.558594 143.535156 150.726562 140.390625 C 151.894531 137.25 152.488281 133.800781 152.503906 130.042969 C 152.519531 126.78125 151.988281 123.667969 150.914062 120.695312 C 149.839844 117.726562 148.515625 115.449219 146.9375 113.855469 C 145.988281 112.898438 144.882812 112.023438 143.621094 111.226562 C 142.355469 110.429688 140.433594 109.730469 137.855469 109.132812 L 137.789062 109.199219 C 139.277344 110.066406 140.527344 111.101562 141.542969 112.304688 C 142.558594 113.507812 143.378906 114.925781 144.003906 116.558594 C 144.628906 118.191406 145.074219 120.105469 145.339844 122.304688 C 145.601562 124.5 145.726562 127.070312 145.710938 130.011719 C 145.6875 135.671875 145.082031 140.117188 143.890625 143.351562 C 142.699219 146.582031 140.71875 149.074219 137.949219 150.828125 Z M 118.320312 151.5625 L 126.808594 151.597656 C 130.25 151.613281 133.09375 151.171875 135.335938 150.277344 C 137.582031 149.378906 139.320312 148.050781 140.550781 146.289062 C 141.78125 144.53125 142.648438 142.316406 143.160156 139.644531 C 143.667969 136.976562 143.929688 133.765625 143.949219 130.003906 C 143.972656 124.210938 143.421875 119.839844 142.304688 116.890625 C 141.183594 113.945312 139.40625 111.785156 136.96875 110.417969 C 134.527344 109.046875 131.203125 108.355469 126.992188 108.335938 L 118.503906 108.300781 Z M 100.59375 151.621094 L 107.996094 151.652344 C 108.855469 151.65625 109.605469 151.386719 110.242188 150.847656 C 110.878906 150.308594 111.324219 149.425781 111.578125 148.203125 C 111.832031 146.984375 111.960938 145.558594 111.96875 143.929688 L 112.089844 115.882812 C 112.09375 114.25 111.988281 112.882812 111.765625 111.769531 C 111.542969 110.660156 111.152344 109.773438 110.589844 109.117188 C 110.023438 108.457031 109.222656 108.125 108.183594 108.121094 L 100.710938 108.089844 L 100.710938 108.15625 C 102.699219 108.890625 104.078125 109.902344 104.839844 111.199219 C 105.605469 112.492188 105.980469 114.292969 105.972656 116.601562 L 105.859375 143.152344 C 105.851562 144.828125 105.644531 146.234375 105.230469 147.363281 C 104.816406 148.492188 104.179688 149.386719 103.316406 150.035156 C 102.453125 150.691406 101.546875 151.195312 100.59375 151.554688 Z M 93.796875 153.222656 L 93.800781 152 L 96.726562 151.332031 C 98.265625 150.976562 99.582031 150.5625 100.667969 150.09375 C 101.757812 149.625 102.597656 148.914062 103.191406 147.964844 C 103.78125 147.015625 104.085938 145.414062 104.09375 143.144531 L 104.207031 116.59375 C 104.214844 114.648438 103.996094 113.1875 103.546875 112.210938 C 103.097656 111.234375 102.367188 110.464844 101.347656 109.894531 C 100.332031 109.324219 98.851562 108.808594 96.910156 108.34375 L 93.992188 107.65625 L 93.996094 106.429688 L 127 106.570312 C 131.164062 106.589844 135.148438 107.015625 138.945312 107.84375 C 142.746094 108.675781 146.09375 109.867188 148.984375 111.417969 C 150.519531 112.238281 151.996094 113.390625 153.417969 114.867188 C 154.835938 116.34375 155.996094 118.035156 156.894531 119.941406 C 157.789062 121.847656 158.394531 123.648438 158.703125 125.347656 C 159.011719 127.046875 159.164062 128.621094 159.160156 130.070312 C 159.148438 132.878906 158.671875 135.535156 157.734375 138.042969 C 156.792969 140.550781 155.5625 142.699219 154.039062 144.480469 C 152.511719 146.261719 150.773438 147.671875 148.824219 148.703125 C 145.921875 150.230469 142.566406 151.394531 138.757812 152.191406 C 134.953125 152.992188 130.96875 153.378906 126.800781 153.363281 Z M 93.796875 153.222656 "/>
<path fill-rule="nonzero" fill="rgb(11.372375%, 11.372375%, 10.588074%)" fill-opacity="1" d="M 181.980469 151.96875 L 189.109375 151.996094 C 189.96875 152 190.71875 151.734375 191.355469 151.191406 C 191.992188 150.652344 192.4375 149.769531 192.691406 148.550781 C 192.945312 147.328125 193.074219 145.902344 193.082031 144.273438 L 193.203125 116.226562 C 193.207031 114.59375 193.101562 113.226562 192.878906 112.113281 C 192.65625 111.003906 192.265625 110.121094 191.703125 109.460938 C 191.136719 108.804688 190.335938 108.46875 189.296875 108.464844 L 182.367188 108.4375 L 182.367188 108.503906 C 184.128906 109.28125 185.359375 110.316406 186.054688 111.609375 C 186.75 112.902344 187.09375 114.683594 187.085938 116.945312 L 186.972656 143.5 C 186.964844 145.765625 186.582031 147.550781 185.832031 148.859375 C 185.078125 150.171875 183.792969 151.183594 181.980469 151.898438 Z M 174.910156 153.566406 L 174.914062 152.34375 L 177.839844 151.679688 C 179.378906 151.320312 180.695312 150.910156 181.78125 150.4375 C 182.871094 149.96875 183.710938 149.257812 184.304688 148.308594 C 184.894531 147.363281 185.199219 145.757812 185.207031 143.492188 L 185.320312 116.9375 C 185.328125 114.992188 185.109375 113.53125 184.660156 112.554688 C 184.210938 111.582031 183.476562 110.808594 182.460938 110.238281 C 181.445312 109.667969 179.964844 109.152344 178.019531 108.6875 L 175.101562 108 L 175.109375 106.777344 L 209.878906 106.921875 L 209.875 108.148438 L 206.949219 108.8125 C 205.410156 109.171875 204.097656 109.582031 203.007812 110.054688 C 201.917969 110.523438 201.078125 111.234375 200.484375 112.179688 C 199.890625 113.128906 199.589844 114.734375 199.582031 117 L 199.46875 143.550781 C 199.460938 145.5 199.679688 146.960938 200.128906 147.9375 C 200.578125 148.910156 201.308594 149.683594 202.328125 150.253906 C 203.34375 150.824219 204.824219 151.339844 206.769531 151.800781 L 209.683594 152.492188 L 209.679688 153.714844 Z M 174.910156 153.566406 "/>
<path fill-rule="nonzero" fill="rgb(11.372375%, 11.372375%, 10.588074%)" fill-opacity="1" d="M 278.8125 115.773438 L 278.882812 115.773438 C 279.382812 114.507812 279.84375 113.390625 280.253906 112.417969 C 280.664062 111.445312 281.234375 110.28125 281.964844 108.929688 L 281.964844 108.859375 L 275.175781 108.832031 L 275.175781 108.898438 C 277.613281 110.449219 278.824219 112.742188 278.8125 115.773438 M 259.234375 152.636719 L 262.519531 146.402344 L 243.511719 112.566406 C 242.613281 110.980469 241.757812 109.683594 240.949219 108.683594 L 233 108.652344 L 233 108.71875 C 233.316406 108.949219 233.8125 109.378906 234.492188 110.015625 C 235.167969 110.652344 236.089844 111.992188 237.257812 114.035156 Z M 258.8125 155.28125 L 235.355469 114.027344 C 234.859375 113.164062 234.277344 112.324219 233.601562 111.507812 C 232.925781 110.6875 232.136719 110.03125 231.234375 109.527344 C 230.328125 109.027344 229.3125 108.660156 228.179688 108.425781 L 227.164062 108.21875 L 227.167969 106.996094 L 258.542969 107.128906 L 258.539062 108.351562 L 256.023438 108.816406 C 254.800781 109.039062 253.804688 109.328125 253.03125 109.6875 C 252.261719 110.046875 251.738281 110.460938 251.464844 110.9375 C 251.191406 111.410156 251.054688 111.851562 251.050781 112.261719 C 251.046875 113.167969 251.425781 114.277344 252.191406 115.59375 L 265.738281 140.03125 L 275.941406 120.652344 C 276.304688 119.972656 276.625 119.136719 276.902344 118.144531 C 277.175781 117.148438 277.316406 116.289062 277.320312 115.5625 C 277.328125 113.933594 276.800781 112.527344 275.742188 111.347656 C 274.683594 110.164062 273.179688 109.34375 271.234375 108.882812 L 269.269531 108.398438 L 269.273438 107.175781 L 289.511719 107.261719 L 289.507812 108.484375 L 288.351562 108.683594 C 287.355469 108.863281 286.355469 109.285156 285.359375 109.960938 C 284.359375 110.636719 283.355469 111.660156 282.355469 113.039062 C 281.355469 114.414062 280.03125 116.660156 278.386719 119.777344 L 259.765625 155.285156 Z M 258.8125 155.28125 "/>
<path fill-rule="nonzero" fill="rgb(11.372375%, 11.372375%, 10.588074%)" fill-opacity="1" d="M 313.671875 152.527344 L 320.804688 152.554688 C 321.664062 152.558594 322.414062 152.292969 323.046875 151.75 C 323.683594 151.210938 324.128906 150.328125 324.382812 149.109375 C 324.636719 147.886719 324.765625 146.460938 324.773438 144.832031 L 324.894531 116.785156 C 324.898438 115.15625 324.792969 113.785156 324.574219 112.675781 C 324.347656 111.566406 323.957031 110.679688 323.394531 110.019531 C 322.828125 109.363281 322.027344 109.03125 320.988281 109.027344 L 314.0625 108.996094 L 314.0625 109.066406 C 315.824219 109.839844 317.050781 110.875 317.746094 112.167969 C 318.445312 113.464844 318.789062 115.242188 318.78125 117.503906 L 318.667969 144.058594 C 318.65625 146.324219 318.273438 148.109375 317.523438 149.417969 C 316.769531 150.730469 315.484375 151.742188 313.671875 152.460938 Z M 306.601562 154.125 L 306.605469 152.90625 L 309.53125 152.238281 C 311.070312 151.882812 312.386719 151.46875 313.476562 150.996094 C 314.5625 150.527344 315.40625 149.816406 315.996094 148.867188 C 316.589844 147.921875 316.890625 146.316406 316.898438 144.050781 L 317.011719 117.5 C 317.019531 115.554688 316.800781 114.089844 316.351562 113.113281 C 315.90625 112.140625 315.171875 111.367188 314.15625 110.796875 C 313.140625 110.226562 311.660156 109.710938 309.710938 109.25 L 306.796875 108.558594 L 306.800781 107.335938 L 341.570312 107.484375 L 341.566406 108.707031 L 338.644531 109.371094 C 337.101562 109.730469 335.785156 110.140625 334.699219 110.613281 C 333.609375 111.082031 332.769531 111.792969 332.179688 112.738281 C 331.582031 113.6875 331.28125 115.296875 331.273438 117.558594 L 331.160156 144.113281 C 331.152344 146.058594 331.375 147.519531 331.820312 148.496094 C 332.269531 149.46875 333.003906 150.242188 334.019531 150.816406 C 335.039062 151.382812 336.515625 151.898438 338.460938 152.359375 L 341.378906 153.050781 L 341.371094 154.273438 Z M 306.601562 154.125 "/>
<path fill-rule="nonzero" fill="rgb(11.372375%, 11.372375%, 10.588074%)" fill-opacity="1" d="M 412.382812 116.882812 L 412.453125 116.882812 L 412.484375 109.414062 L 406.101562 109.386719 L 406.101562 109.457031 C 409.398438 110.828125 411.492188 113.304688 412.382812 116.882812 M 366.121094 152.75 L 372.570312 152.777344 L 372.601562 145.304688 L 372.46875 145.304688 C 372.003906 147.070312 371.25 148.539062 370.207031 149.710938 C 369.160156 150.882812 367.796875 151.875 366.121094 152.683594 Z M 411.421875 152.125 L 411.457031 143.839844 L 375.402344 109.324219 L 365.421875 109.214844 L 365.417969 109.28125 C 366.097656 109.601562 366.914062 110.058594 367.859375 110.652344 C 368.808594 111.246094 370.273438 112.519531 372.257812 114.472656 Z M 412.085938 155.117188 L 373.535156 118.144531 L 373.4375 140.625 C 373.433594 141.394531 373.488281 142.253906 373.597656 143.207031 C 373.703125 144.15625 373.9375 145.074219 374.296875 145.960938 C 374.65625 146.84375 375.09375 147.636719 375.609375 148.339844 C 376.128906 149.046875 376.863281 149.738281 377.808594 150.421875 C 378.757812 151.105469 380.070312 151.679688 381.742188 152.136719 L 386.015625 153.242188 L 386.007812 154.464844 L 361.152344 154.359375 L 361.160156 153.136719 L 363.949219 152.058594 C 365.808594 151.34375 367.292969 150.46875 368.410156 149.429688 C 369.519531 148.394531 370.34375 147.175781 370.867188 145.773438 C 371.394531 144.375 371.660156 142.65625 371.671875 140.617188 L 371.773438 116.507812 L 371.097656 115.828125 C 370.960938 115.691406 370.566406 115.28125 369.914062 114.601562 C 369.261719 113.917969 368.539062 113.226562 367.75 112.519531 C 366.960938 111.8125 366.113281 111.1875 365.210938 110.640625 C 364.308594 110.09375 363.40625 109.703125 362.5 109.472656 L 359.988281 108.785156 L 359.992188 107.5625 L 382.40625 107.65625 L 411.558594 135.421875 L 411.617188 121.566406 C 411.628906 118.21875 410.917969 115.632812 409.476562 113.816406 C 408.035156 112 406.027344 110.746094 403.449219 110.054688 L 399.175781 108.949219 L 399.179688 107.726562 L 423.832031 107.832031 L 423.824219 109.054688 L 421.039062 110.128906 C 419.179688 110.847656 417.691406 111.722656 416.578125 112.757812 C 415.464844 113.796875 414.644531 115.015625 414.117188 116.417969 C 413.589844 117.820312 413.324219 119.539062 413.316406 121.574219 L 413.171875 155.125 Z M 412.085938 155.117188 "/>
<path fill-rule="nonzero" fill="rgb(11.372375%, 11.372375%, 10.588074%)" fill-opacity="1" d="M 477.5 154.039062 C 480.3125 153.371094 482.761719 152.410156 484.847656 151.148438 C 486.9375 149.890625 488.664062 148.335938 490.03125 146.484375 C 491.398438 144.636719 492.425781 142.453125 493.117188 139.945312 C 493.804688 137.433594 494.15625 134.597656 494.167969 131.425781 C 494.183594 127.757812 493.609375 124.394531 492.445312 121.332031 C 491.28125 118.273438 489.449219 115.683594 486.945312 113.566406 C 484.441406 111.453125 481.425781 109.957031 477.898438 109.082031 L 477.828125 109.148438 C 481.035156 111.199219 483.445312 114.121094 485.058594 117.90625 C 486.671875 121.691406 487.46875 126.214844 487.449219 131.464844 C 487.425781 136.808594 486.578125 141.367188 484.910156 145.140625 C 483.242188 148.914062 480.773438 151.855469 477.5 153.972656 Z M 469.351562 154.34375 C 471.660156 154.351562 473.8125 153.898438 475.8125 152.976562 C 477.804688 152.058594 479.441406 150.785156 480.714844 149.164062 C 481.988281 147.539062 482.992188 145.742188 483.726562 143.777344 C 484.460938 141.808594 484.964844 139.730469 485.246094 137.535156 C 485.527344 135.339844 485.671875 133.316406 485.679688 131.457031 C 485.6875 129.601562 485.558594 127.585938 485.296875 125.414062 C 485.035156 123.238281 484.546875 121.164062 483.832031 119.191406 C 483.113281 117.21875 482.125 115.425781 480.863281 113.8125 C 479.605469 112.203125 477.980469 110.9375 475.992188 110.023438 C 474.003906 109.109375 471.855469 108.648438 469.546875 108.640625 C 467.238281 108.628906 465.085938 109.074219 463.089844 109.96875 C 461.09375 110.867188 459.457031 112.117188 458.1875 113.714844 C 456.90625 115.320312 455.902344 117.101562 455.171875 119.070312 C 454.441406 121.035156 453.933594 123.105469 453.652344 125.277344 C 453.371094 127.449219 453.226562 129.464844 453.21875 131.320312 C 453.210938 133.175781 453.335938 135.203125 453.601562 137.398438 C 453.863281 139.597656 454.351562 141.679688 455.070312 143.652344 C 455.78125 145.625 456.769531 147.429688 458.035156 149.066406 C 459.292969 150.699219 460.917969 151.988281 462.90625 152.921875 C 464.894531 153.859375 467.042969 154.332031 469.351562 154.34375 M 457.066406 152.730469 L 457.132812 152.660156 C 453.65625 150.699219 450.988281 147.882812 449.125 144.207031 C 447.261719 140.53125 446.335938 136.246094 446.359375 131.359375 C 446.378906 126.46875 447.316406 122.230469 449.164062 118.636719 C 451.011719 115.046875 453.640625 112.261719 457.042969 110.285156 L 456.976562 110.214844 C 454.296875 111.109375 451.894531 112.253906 449.761719 113.648438 C 447.628906 115.042969 445.832031 116.632812 444.378906 118.414062 C 442.921875 120.195312 441.8125 122.171875 441.058594 124.339844 C 440.300781 126.511719 439.921875 128.816406 439.910156 131.261719 C 439.890625 136.242188 441.363281 140.597656 444.335938 144.320312 C 447.308594 148.046875 451.550781 150.847656 457.066406 152.730469 M 469.347656 155.972656 C 466.71875 155.960938 464.277344 155.757812 462.011719 155.363281 C 459.75 154.96875 457.714844 154.476562 455.90625 153.878906 C 454.101562 153.28125 452.382812 152.550781 450.753906 151.683594 C 449.128906 150.816406 447.546875 149.757812 446.015625 148.503906 C 444.480469 147.253906 443.105469 145.742188 441.890625 143.972656 C 440.675781 142.199219 439.746094 140.25 439.097656 138.117188 C 438.449219 135.988281 438.132812 133.699219 438.144531 131.253906 C 438.160156 127.40625 438.988281 123.960938 440.628906 120.910156 C 442.273438 117.859375 444.539062 115.300781 447.421875 113.230469 C 450.304688 111.160156 453.636719 109.601562 457.421875 108.554688 C 461.207031 107.507812 465.25 106.992188 469.554688 107.007812 C 473.855469 107.027344 477.890625 107.578125 481.667969 108.65625 C 485.441406 109.734375 488.765625 111.324219 491.632812 113.417969 C 494.496094 115.511719 496.742188 118.089844 498.355469 121.15625 C 499.972656 124.21875 500.773438 127.671875 500.757812 131.523438 C 500.75 132.972656 500.617188 134.386719 500.363281 135.765625 C 500.109375 137.144531 499.753906 138.457031 499.296875 139.699219 C 498.839844 140.941406 498.15625 142.285156 497.242188 143.730469 C 496.328125 145.175781 494.988281 146.699219 493.214844 148.300781 C 491.445312 149.898438 489.296875 151.28125 486.78125 152.445312 C 484.261719 153.613281 481.519531 154.496094 478.550781 155.097656 C 475.585938 155.695312 472.515625 155.984375 469.347656 155.972656 "/>
</svg>
